PathFileType	4	(X/Y/Z)	/home/abdul/Desktop/myosuite/custom_workspace/IK/output/S19_12_3.trc
DataRate	CameraRate	NumFrames	NumMarkers	Units	OrigDataRate	OrigDataStartFrame	OrigNumFrames
200.0	200.0	79	3	mm	200.0	742	1483
Frame#	Time	V_Shoulder			V_Elbow			V_Wrist		
		X1	Y1	Z1	X2	Y2	Z2	X3	Y3	Z3

742	3.705	-101.6924211162878	698.237573745946	324.75490739425834				-128.03209708902318	354.21690563031484	172.53784803696362
743	3.71	-101.71047238767437	698.0972074834408	324.68428569226916				-128.06017998630196	352.8330187402396	171.64460939276904
744	3.715	-101.72889360615643	697.9535957396406	324.6132638150489				-128.0834890670529	351.4472976723149	170.74716382906826
745	3.72	-101.74767369270666	697.8067276712163	324.54186235171477				-128.1017927541694	350.0602566266922	169.84581059756698
746	3.725	-101.76680143594488	697.6565956439005	324.47010191912005				-128.1148639272644	348.672411472234	168.94085433816457
747	3.73	-101.786265502255	697.503195261925	324.3980031443404				-128.12248053368742	347.2842789522675	168.03260453673158
748	3.735	-101.80605444568714	697.3465253932028	324.32558664797585				-128.12442619458199	345.89637588448903	167.12137496601252
749	3.74	-101.82615671764783	697.1865881901595	324.25287302828036				-128.12049080407792	344.5092183570456	166.20748311149345
750	3.745	-101.84656067638242	697.0233891061265	324.1798828461228				-128.11047111969276	343.12332092288943	165.2912495841634
751	3.75	-101.86725459625477	696.8569369072126	324.10663661077916				-128.0941713420004	341.7391957945622	164.3729975221765
752	3.755	-101.88822667683151	696.6872436795765	324.0331547665551				-128.07140368162072	340.357352041618	163.45305198348888
753	3.76	-101.90946505177857	696.5143248320256	323.9594576802304				-128.04198891158185	338.97829479293074	162.53173933160306
754	3.765	-101.93095779757873	696.3381990938847	323.8855656293167				-128.00575690311777	337.6025244461606	161.60938661659648
755	3.77	-101.95269294208039	696.1588885080678	323.81149879111376				-127.96254714297885	336.2305358866706	160.68632095364833
756	3.775	-101.97465847288812	695.9764184193115	323.7372772325473				-127.91220923035985	334.8628177181851	159.76286890129927
757	3.78	-101.99684234560584	695.7908174575246	323.6629209007693				-127.854603351583	333.4998515074758	158.83935584169072
758	3.785	-102.01923249194492	695.6021175162208	323.5884496144954				-127.78960073071708	332.1421110453356	157.9161053650299
759	3.79	-102.04181682770923	695.4103537260131	323.51388305605514				-127.71708405436596	330.7900616260697	156.99343866051356
760	3.795	-102.06458326066912	695.215564423151	323.43924076412486				-127.6369478689202	329.4441593476832	156.07167391591932
761	3.8	-102.08751969833736	695.0177911130987	323.36454212711214				-127.54909894863627	328.1048504348871	155.1511257280366
762	3.805	-102.1106140556588	694.817078429156	323.2898063771574				-127.45345663298663	326.77257058697376	154.23210452606264
763	3.81	-102.13385426262663	694.6134740861365	323.2150525847173				-127.3499531318117	325.4477443525268	153.31491601002983
764	3.815	-102.15722827183684	694.4070288291286	323.14029965369133				-127.23853379690163	324.13078453284163	152.39986060626092
765	3.82	-102.1807240659927	694.1977963773719	323.0655663170517				-127.11915735874057	322.82209161582153	151.48723294176995
766	3.825	-102.20432966537037	693.9858333632961	322.9908711329346				-126.99179612725817	321.52205324200526	150.5773213394367
767	3.83	-102.2280331352557	693.7711992667786	322.9162324811511				-126.85643615555506	320.2310437042528	149.67040733568513
768	3.835	-102.25182259336277	693.5539563446833	322.8416685600726				-126.71307736569426	318.94942348248725	148.7667652222873
769	3.84	-102.27568621724258	693.3341695557675	322.76719738384594				-126.56173363578668	317.67753881474675	147.8666616138018
770	3.845	-102.29961225169014	693.1119064810342	322.6928367798919				-126.40243284773699	316.4157213056542	146.9703550420319
771	3.85	-102.32358901615758	692.8872372396389	322.6186043866428				-126.23521689516204	315.16428757325684	146.07809557876072
772	3.855	-102.3476049121786	692.6602344004547	322.54451765147047				-126.06014165114357	313.9235389350313	145.1901244878863
773	3.86	-102.37164843081005	692.4309728894228	322.4705938287589				-125.8772768956297	312.6937611336827	144.30667390794045
774	3.865	-102.39570816009437	692.1995298928151	322.396849978076				-125.68670620245643	311.4752241032028	143.4279665658317
775	3.87	-102.4197727925453	691.965984756554	322.3233029623968				-125.48852678611786	310.2681817754825	142.55421552250516
776	3.875	-102.44383113265901	691.7304188817419	322.2499694463348				-125.28284930857359	309.0728719276043	141.68562395106463
777	3.88	-102.4678721044505	691.4929156165636	322.1768658943345				-125.0697976465409	307.88951606977116	140.82238494774842
778	3.885	-102.49188475901447	691.2535601447335	322.10400856878414				-124.84950861987728	306.7183193736588	139.96468137600124
779	3.89	-102.51585828210874	691.0124393706706	322.0314135280046				-124.62213168181717	305.5594706408136	139.11268574373054
780	3.895	-102.53978200175624	690.7696418015912	321.9590966240742				-124.3878285719797	304.41314231055355	138.26656011368516
781	3.9	-102.56364539586143	690.5252574267207	321.88707350045115				-124.14677293321628	303.2794905066724	137.4264560467442
782	3.905	-102.58743809983478	690.2793775938331	321.815359589354				-123.89914989351294	302.1586551220927	136.5925145777571
783	3.91	-102.61114991421857	690.0320948833337	321.74397010886764				-123.64515561430383	301.0507599404667	135.76486622343143
784	3.915	-102.63477081230546	689.7835029801086	321.6729200597398				-123.38499680668818	299.9559127935837	134.94363102162532
785	3.92	-102.65829094774028	689.5336965433731	321.6022242218373				-123.11889021717154	298.87420575331	134.12891860126584
786	3.925	-102.68170066209508	689.2827710747559	321.53189715023467				-122.84706208467345	297.8057153566655	133.32082828198543
787	3.93	-102.70499049240509	689.0308227848585	321.46195317090945				-122.56974757065792	296.75050286252576	132.51944920244497
788	3.935	-102.72815117865366	688.7779484585438	321.39240637602023				-122.28719016434758	295.70861453833675	131.7248604761949
789	3.94	-102.75117367119286	688.5242453192008	321.32327061874935				-121.9996410650786	294.68008197513257	130.93713137381832
790	3.945	-102.77404913808486	688.2698108922456	321.25455950769145				-121.70735854394044	293.6649224290707	130.156321529998
791	3.95	-102.79676897235016	688.0147428681172	321.1862864007756				-121.41060728692045	292.66313918762296	129.3824811740578
792	3.955	-102.8193247991063	687.7591389650296	321.118464398709				-121.10965772184119	291.6747219585062	128.61565138244677
793	3.96	-102.8417084825813	687.5030967917479	321.05110633793623				-120.80478533143419	290.69964727938884	127.85586435155977
794	3.965	-102.8639121329853	687.246713710649	320.9842247831089				-120.49626995493992	289.7378789463744	127.10314368922695
795	3.97	-102.8859281132228	686.9900867013366	320.91783201906605				-120.18439508065961	288.7893684592432	126.35750472315092
796	3.975	-102.90774904542862	686.7333122250744	320.8519400423269				-119.86944713190859	287.8540554814215	125.61895482452795
797	3.98	-102.92936781730998	686.4764860903033	320.7865605521027				-119.55171474883562	286.93186831264796	124.88749374505893
798	3.985	-102.95077758827625	686.2197033195048	320.7217049408369				-119.23148806857611	286.0227243723227	124.16311396553456
799	3.99	-102.97197179533914	685.9630580176708	320.65738428428716				-118.9090580061997	285.1265306915467	123.44580105416884
800	3.995	-102.99294415876511	685.7066432426406	320.5936093311641				-118.58471553889528	284.2431844118941	122.73553403285655
801	4.0	-103.01368868746202	685.4505508775547	320.530390492348				-118.25875099580904	283.37257328900773	122.03228574954085
802	4.005	-103.03419968408268	685.1948715056798	320.4677378297056				-117.93145335591355	282.5145761991573	121.3360232548986
803	4.01	-103.05447174982741	684.9396942878453	320.4056610445332				-117.6031095562383	281.66906364696797	120.64670818158282
804	4.015	-103.07449978892897	684.6851068427342	320.3441694656555				-117.27400381273468	280.835898272597	119.9642971243014
805	4.02	-103.09427901280242	684.4311951302562	320.2832720372132				-116.9444169559836	280.01493535671284	119.2887420190622
806	4.025	-103.11380494384427	684.1780433382355	320.2229773061741				-116.61462578387787	279.20602332172155	118.61999051997267
807	4.03	-103.13307341886491	683.9257337726225	320.16329340960647				-116.28490243332894	278.40900422776986	117.9579863720478
808	4.035	-103.15208059213917	683.6743467514483	320.10422806175586				-115.95551377295564	277.62371426215697	117.30266977855449
809	4.04	-103.17082293806084	683.4239605027175	320.04578854096945				-115.62672081861467	276.84998422088177	116.65397776150047
810	4.045	-103.18929725338728	683.1746510664342	319.98798167651313				-115.29877817352592	276.0876399811583	116.01184451396162
811	4.05	-103.20750065906145	682.9264922009437	319.9308138353312				-114.97193349463342	275.33650296383706	115.37620174303306
812	4.055	-103.2254306015991	682.6795552937609	319.8742909087986				-114.64642698672449	274.59639058477444	114.74697900228452
813	4.06	-103.24308485402987	682.4339092770493	319.8184182995188				-114.32249092570513	273.8671166943028	114.1241040126996
814	4.065	-103.26046151638229	682.189620547901	319.7632009082212				-114.00034921230132	273.1484920040578	113.50750297118057
815	4.07	-103.27755901570306	681.946752893556	319.70864312081534				-113.68021695732241	272.4403245005255	112.89710084580355
816	4.075	-103.29437610560235	681.7053674216927	319.6547487956582				-113.36230009948602	271.74241984477703	112.29282165711409
817	4.08	-103.31091186531775	681.4655224959029	319.6015212510941				-113.04679505666397	271.05458175795746	111.69458874485838
818	4.085	-103.32716569829056	681.2272736764568	319.54896325332624				-112.73388841126675	270.3766123921939	111.10232501964991
819	4.09	-103.34313733024885	680.9906736664508	319.49707700468025				-112.42375663034021	269.70831268668235	110.51595319917524
820	4.095	-103.35882680679316	680.7557722634168	319.445864132321				-112.11656582080263	269.0494827087999	109.93539602864472
